<svg xmlns="http://www.w3.org/2000/svg" width="60" height="60" fill="none" viewBox="0 0 60 60"><g clip-path="url(#a)"><circle cx="7.81571" cy="52.7395" r="33.8157" fill="#C14BDC"/><path fill="#65D2E9" d="M24.1 65.617c5.401 4.03 32.953.994 37.356-4.127-2.075-9.337-10.795-15.848-20.52-14.779-9.735 1.072-16.84 9.327-16.837 18.906"/><path fill="#BDEA4A" d="M21.365-8.327C15.425-9.318-5.223 4.37-6.625 10.24c5.469 6.569 15.061 8.173 22.351 3.343 7.296-4.835 9.563-14.302 5.64-21.91"/><path fill="#E398F4" d="M-19.922 38.442c-.991 5.94 12.696 26.588 18.566 27.99 6.57-5.469 8.174-15.061 3.344-22.351-4.835-7.296-14.302-9.562-21.91-5.64"/><path fill="#65D2E9" d="M48.502 34.375a8.884 8.884 0 0 1-7.856 9.8 8.875 8.875 0 0 1-9.794-7.859c-.537-4.872 2.985-9.254 7.858-9.791 4.87-.534 9.256 2.974 9.792 7.85"/><path fill="#BDEA4A" d="M14.765 26.483a7.94 7.94 0 0 1 2.23-11 7.93 7.93 0 0 1 10.999 2.234c2.42 3.651 1.415 8.574-2.237 10.996-3.65 2.416-8.571 1.425-10.993-2.23"/><path fill="#E398F4" d="M14.888 45.044a7.94 7.94 0 0 1-11.001-2.232 7.93 7.93 0 0 1 2.235-10.997c3.65-2.42 8.574-1.416 10.995 2.236a7.93 7.93 0 0 1-2.23 10.993"/></g><defs><clipPath id="a"><path fill="#fff" d="M0 0h60v60H0z"/></clipPath></defs></svg>