<svg xmlns="http://www.w3.org/2000/svg" width="140" height="100" fill="none" viewBox="0 0 140 100"><g clip-path="url(#a)"><path fill="#FFE7D6" d="M103.718 74.278a20.6 20.6 0 0 0-.71-4.116c-.746-2.67-1.98-5.189-3.47-7.497-1.514-2.344-3.296-4.524-5.194-6.565 3.377-1.726 6.696-4.594 7.266-8.477.652-4.477-2.655-8.453-6.836-9.619-1.99-.56-4.11-.525-6.125-.093 1.619-2.262 3.587-4.28 5.136-6.612 1.688-2.518 2.725-5.561 2.317-8.628-.384-2.822-2.783-6.576-6.102-5.445-1.619.548-3.18 1.457-4.612 2.379-1.479.944-2.876 2.029-4.192 3.171-2.131 1.866-4.064 3.941-5.881 6.11a46 46 0 0 0-.198-13.549c-.233-1.457-.524-2.961-1.28-4.244-.77-1.306-2.016-2.204-3.541-2.355-1.56-.164-3.121.536-4.39 1.399-1.375.933-2.574 2.11-3.715 3.3a32 32 0 0 0-3.145 3.812c-1.665 2.402-2.9 5.2-3.027 8.127-1.677-1.574-3.075-3.451-5.066-4.664-2.422-1.469-5.252-1.55-7.5.268-2.259 1.831-3.027 4.734-3.319 7.51-.326 3.066-.477 6.378.536 9.34.687 2.016 1.968 3.882 3.75 5.036a23.4 23.4 0 0 0-9.794 7.976c-1.537 2.168-2.806 4.722-2.958 7.427-.14 2.448.85 5.002 2.912 6.413 1.77 1.212 3.982 1.282 6.009.758-2.131 4.139-5.054 8.628-2.609 13.187 2.201 4.104 7.511 5.329 11.68 3.918 1.934-.653 3.669-1.738 5.206-3.067a27.6 27.6 0 0 0 .093 4.384c.116 1.143.291 2.286.559 3.393.245 1.003.803 1.82 1.84 2.088 1.677.42 3.657-.152 5.17-.863 1.573-.747 2.935-1.9 3.983-3.288a9.9 9.9 0 0 0 1.91-4.396c2.655 2.332 4.11 5.97 7.43 7.532 4.553 2.145 9.246-.921 12.728-3.731.5-.396.943-.863 1.188-1.458.256-.664.198-1.352.058-2.028a61 61 0 0 0-.803-3.195c.885.361 1.712.944 2.55 1.352a14.2 14.2 0 0 0 4.239 1.283c2.48.338 6.242.373 7.453-2.332.559-1.224.536-2.623.454-3.941"/><path stroke="#000" stroke-miterlimit="10" stroke-width="0.752343" d="M29.994 91.285c1.735-5.264 2.306-7.424 4.45-12.552 2.225-5.343 4.228-9.005 7.087-14.028.44-.767.882-1.534 1.319-2.276 1.861-2.876 7.405-8.838 10.172-10.85.963-.715.59-2.459-.52-2.446-1.67.03-3.88 1.343-5.35 1.907l-.273-.368c.447-.463 1.399-1.104 1.908-1.483 1.452-1.121 3.185-2.277 3.79-3.297.604-1.02-.007-2.345-1.711-2.244-1.7.077-6.9 3.368-6.9 3.368l-.358-.482c.178-.175 1.821-1.748 3-2.733 1.01-.86 1.845-2.248 1.175-3.18-.669-.93-2.382-.427-3.4.154-1.87 1.06-7.15 4.894-10.337 7.524.104-1.724.528-3.578.635-4.47.114-.94-.154-1.862-1.265-1.85s-2.004 1.797-2.993 4.398c-.99 2.602-1.571 6.373-2.665 9.514-2.85 3.763-5.465 8.67-7.564 12.646m3.543-24.18c-3.058-1.485-6.546-2.277-9.882-2.896"/><path stroke="#000" stroke-miterlimit="10" stroke-width="0.752343" d="M33.236 59.245c.71.483 1.442.994 2.152 1.477m1.966-11.607a3.49 3.49 0 0 1 2.338 2.261 3.4 3.4 0 0 1-.646 3.182m75.433 12.16c-3.643-4.178-5.007-5.946-8.973-9.84-4.126-4.06-7.393-6.658-11.977-10.177a246 246 0 0 0-2.1-1.585c-2.831-1.928-10.255-5.27-13.586-6.05-1.165-.285-1.498-2.037-.47-2.457 1.55-.619 4.096-.268 5.67-.318l.109-.445c-.591-.254-1.717-.475-2.334-.626-1.773-.47-3.819-.863-4.772-1.568s-.904-2.164.705-2.732c1.597-.59 7.667.424 7.667.424l.142-.582c-.231-.093-2.356-.904-3.826-1.354-1.263-.4-2.572-1.356-2.317-2.474.256-1.117 2.03-1.318 3.194-1.179 2.135.251 8.489 1.734 12.447 2.921-.765-1.548-1.876-3.091-2.32-3.872-.47-.823-.582-1.776.447-2.196s2.544.877 4.466 2.89c1.921 2.015 3.922 5.264 6.149 7.734 4.087 2.362 8.402 5.87 11.88 8.718m-12.653-20.908c2.242-2.556 5.149-4.64 7.984-6.505"/><path stroke="#000" stroke-miterlimit="10" stroke-width="0.752343" d="M99.054 38.45c-.467.721-.943 1.476-1.41 2.197m-6.318-9.934a3.49 3.49 0 0 0-1.277 2.991 3.4 3.4 0 0 0 1.83 2.681"/><path fill="#FF5C00" d="M68.98 64.867a2.14 2.14 0 0 1-2.198-.285l-6.757-5.383a2.14 2.14 0 0 1-.79-1.952l1.173-9.037a2.14 2.14 0 0 1 1.262-1.686l7.906-3.48a2.14 2.14 0 0 1 2.2.285l6.756 5.383c.587.468.886 1.208.79 1.952l-1.173 9.037a2.14 2.14 0 0 1-1.262 1.685z"/><path fill="#121926" stroke="#000" stroke-width="0.102055" d="M78.99 67.793h.001c1.39-.058 2.976-.1 4.421.208 1.444.309 2.742.967 3.564 2.308v.001q.181.286.295.602c-1.563-.02-3.12.233-4.582.778-.607.228-1.33.544-1.919.99-.588.446-1.047 1.026-1.112 1.782l.05.005-.05-.004c-.062.711.268 1.272.762 1.673.493.4 1.15.644 1.756.727 2.85.395 5.823-1.552 5.898-4.594a4.3 4.3 0 0 0-.054-.769c.897.068 1.785.224 2.649.476 1.249.367 2.44.933 3.51 1.677 1.028.718 2.025 1.643 2.55 2.786a19.5 19.5 0 0 0-6.618 1.79 17.3 17.3 0 0 0-3.897 2.532c-.532.456-1.127 1.038-1.51 1.699-.382.662-.555 1.409-.23 2.19.308.751.947 1.147 1.672 1.336.723.189 1.538.172 2.213.093a12.4 12.4 0 0 0 4.393-1.362c1.253-.666 2.57-1.655 3.53-2.868.958-1.213 1.56-2.655 1.373-4.224a5 5 0 0 0-.135-.69c3.288-.189 6.644.385 9.761 1.538.741.274 1.471.585 2.193.912.165.078.315-.01.381-.127a.27.27 0 0 0 .03-.199.24.24 0 0 0-.147-.165c-3.872-1.793-8.181-2.769-12.398-2.504-.467-1.162-1.359-2.143-2.408-2.932-1.06-.797-2.282-1.4-3.397-1.796a13 13 0 0 0-3.658-.738c-.305-.919-.933-1.721-1.725-2.32v-.001c-1.297-.97-2.88-1.323-4.46-1.401-.905-.044-1.808-.013-2.705.03a.27.27 0 0 0-.205.093.3.3 0 0 0-.066.192c0 .068.023.138.07.19a.26.26 0 0 0 .204.086ZM93.345 83.72a11.7 11.7 0 0 1-3.854 1.61c-.62.138-1.395.286-2.144.28-.75-.007-1.465-.167-1.972-.635-.342-.318-.493-.661-.516-1.01-.023-.35.084-.71.268-1.062.368-.704 1.038-1.359 1.546-1.794a16.7 16.7 0 0 1 3.472-2.271c2.157-1.07 4.458-1.66 6.804-1.859.422 1.366.07 2.692-.66 3.856-.737 1.175-1.858 2.18-2.944 2.885Zm-6.38-9.54c-.668 1.163-1.881 1.889-3.182 2.104-.57.094-1.315.106-1.98-.061-.666-.168-1.242-.513-1.493-1.126a1.3 1.3 0 0 1-.01-1.017c.126-.308.364-.584.66-.83.592-.49 1.403-.841 1.959-1.048a12.1 12.1 0 0 1 4.52-.728 3.92 3.92 0 0 1-.474 2.706Z"/></g><defs><clipPath id="a"><path fill="#fff" d="M0 0h140v100H0z"/></clipPath></defs></svg>