<svg xmlns="http://www.w3.org/2000/svg" width="60" height="60" fill="none" viewBox="0 0 60 60"><g clip-path="url(#a)"><circle cx="12.8157" cy="49.6888" r="33.8157" fill="#C14BDC"/><mask id="b" width="57" height="70" x="3" y="-5" maskUnits="userSpaceOnUse" style="mask-type:alpha"><path fill="#000" d="M49.72 37.075 17.09 28.39c-.381-3.471 1.293-6.965 4.593-8.797 4.507-2.5 10.324-.952 12.991 3.458l.907 1.501 1.533-.851c4.509-2.5 10.325-.953 12.992 3.457 1.955 3.23 1.67 7.095-.387 9.917m-.073-39.024c-7.591-4.408-16.793-2.003-20.555 5.373l-1.28 2.509-2.582-1.5C17.64.026 8.436 2.431 4.675 9.807c-1.928 3.781-2.041 8.132-.682 12.07L57.452 7.904a17.23 17.23 0 0 0-7.805-9.852M7.246 39.12l1.43 2.52 10.146 16.722c4.663 6.372 8.097 7.311 16.042 3.004l15.57-8.61 2.494-1.476c3.572-2.116 5.995-5.468 7.065-9.2L5.689 27.627c-.928 3.77-.491 7.883 1.557 11.495"/></mask><g mask="url(#b)"><path fill="#E398F4" d="M44.73 89.205c23.289-2.787 47.312-24.022 44.52-47.314-2.793-23.293-22.763-30.13-46.053-27.343s-54.571 14.727-51.779 38.02C-5.789 75.86 15.382 92.716 38.672 89.93z"/><path fill="#BDEA4A" d="M.651-54.688c-25.84 9.638-69.691-6.327-35.762-90.467 102.965 17.556 303.716 52.168 283.004 50.172-20.712-1.995-21.514 55.032-25.726 77.138-13.826 76.599-50.955 35.464-67.818 47.705-28.329 20.566-36.985-30.022-94.697-4.512S-2.226 4.682 4.468-16.507c6.694-21.19 5.345-36.854-3.817-38.18"/><path fill="#65D2E9" d="M51.613 124.837c25.208-11.185 69.947 2.095 41.177 88.134-103.84-11.287-306.323-33.679-285.527-32.941s18.141-56.233 21.006-78.553c9.16-77.294 48.713-38.484 64.804-51.724 27.032-22.243 38.736 27.727 94.798-1.23s63.018 16.88 57.62 38.435c-5.4 21.556-3.104 37.11 6.122 37.879"/><path fill="#F69DFF" d="M36.193-2.422C29.06 24.213-9.383 50.68-58.27-25.73c74.024-73.698 218.662-217.165 205.023-201.45s32.367 49.425 47.938 65.67c54.402 55.662-.653 62.063-.457 82.895.328 34.998-45.916 12.726-58.601 74.524S82.904 34.336 69.52 16.601C56.135-1.136 42.588-9.116 36.193-2.422"/></g></g><defs><clipPath id="a"><path fill="#fff" d="M0 0h60v60H0z"/></clipPath></defs></svg>