<svg xmlns="http://www.w3.org/2000/svg" width="140" height="100" fill="none" viewBox="0 0 140 100"><g clip-path="url(#a)"><path fill="#FFE7D6" d="M9.068 24.186c-3.831 22.53 17.064 45.8 49.097 57.628 1.15.903 6.927 2.738 20.831 2.857 13.904.118 17.972-14.997 18.268-22.569 13.778.073 28.984 18.806 32.786.627 6.114-29.237-13.051-45.175-33.652-48.522s-.829 15.037-13.551 14.549C70.124 28.268 65.622.786 48.444 3.475c-17.179 2.688.898 24.417-8.15 26.232-9.05 1.814-27.395-28.052-31.226-5.521"/><path fill="#313336" stroke="#000" stroke-width="0.127134" d="M97.133 66.965c.164.175.118.4-.001.534a.37.37 0 0 1-.234.125.32.32 0 0 1-.27-.11v-.001l.046-.044zm0 0a47 47 0 0 1-4.255-5.083zm-66.86-8.606 7.907-2.115-.017-.062a.32.32 0 0 1 .29.05.37.37 0 0 1 .131.232c.031.176-.048.392-.278.45a174 174 0 0 0-7.884 2.175.32.32 0 0 1-.286-.041.36.36 0 0 1-.132-.226.403.403 0 0 1 .269-.463Zm11.512 10.503a.34.34 0 0 1-.507.059.4.4 0 0 1-.141-.229.36.36 0 0 1 .072-.288v-.002q1.273-1.61 2.547-3.216 1.276-1.608 2.547-3.217a.35.35 0 0 1 .262-.14.38.38 0 0 1 .252.088c.07.056.123.136.14.228a.35.35 0 0 1-.08.285l-.05-.04.05.04q-1.27 1.61-2.546 3.216t-2.546 3.216Zm0 0-.05-.038.05.039Zm4.568-6.854Z"/><path fill="#FF6B04" d="M89.875 58.87H47.746a5.9 5.9 0 0 1-5.91-5.91v-7.395a5.9 5.9 0 0 1 5.91-5.91h42.128c3.244 0 5.91 2.637 5.91 5.91v7.426c-.03 3.243-2.666 5.88-5.91 5.88"/><path stroke="#313336" stroke-width="0.889938" d="m48.145 48.08 1.42 1.841 2.143-2.906m4.597 2.194H72.05"/><path fill="#000" fill-rule="evenodd" d="M49.897 18.254h-2.154a5.9 5.9 0 0 0-5.91 5.91v7.396a5.9 5.9 0 0 0 5.91 5.91h42.129c3.243 0 5.88-2.637 5.91-5.88v-4.468h-.763v4.464c-.028 2.827-2.328 5.12-5.147 5.12H47.743a5.136 5.136 0 0 1-5.147-5.146v-7.396a5.136 5.136 0 0 1 5.147-5.147h2.154z" clip-rule="evenodd"/><path stroke="#000" stroke-miterlimit="10" stroke-width="0.807762" d="M83.366 67.923c.455.584.739 1.322.743 2.091"/><path fill="#000" fill-rule="evenodd" d="M86.538 46.902c-1.236.47-2.376 1.247-3.276 2.03l-.002.002c-1 .885-1.865 2.151-2.632 3.496-.636 1.114-1.219 2.31-1.761 3.423l-.332.678q-.644 1.178-1.325 2.41c-2.292 4.152-4.822 8.736-6.812 13.44-1.925 4.551-3.358 9.246-3.582 13.814l.889.043c.216-4.42 1.608-9.006 3.513-13.51 1.97-4.657 4.473-9.193 6.765-13.346q.686-1.24 1.338-2.432l.004-.009.004-.008.342-.698c.542-1.112 1.11-2.277 1.73-3.364.752-1.319 1.558-2.482 2.447-3.269.845-.736 1.897-1.445 3.007-1.869 1.108-.422 2.242-.547 3.29-.174.183.074.336.136.463.205l.189.101.126-.053h.017l.09.006.086-.03c.807-.285 1.704-.502 2.622-.364.9.135 1.876.62 2.83 1.841l.236.302.334-.188c.586-.33 1.217-.488 1.833-.407.61.08 1.253.398 1.865 1.102m-14.298-3.172c1.237-.471 2.602-.649 3.916-.178Zm3.916-.178.008.003Zm.008.003.008.003Zm.008.003.011.005Zm.011.005c.132.053.28.113.423.181Zm.423.181h.009c.839-.289 1.865-.536 2.957-.372 1.069.16 2.153.706 3.166 1.888.633-.292 1.333-.437 2.05-.343.855.112 1.687.556 2.422 1.401.684.789 1.067 1.822 1.27 2.765.202.943.234 1.843.18 2.407-.097 1.153-.653 2.922-2.069 4.324.217.97.19 2.127-.001 3.224-.209 1.198-.624 2.38-1.19 3.223-1.345 2.05-3.37 3.38-5.556 4.242l-.085.13-.142.215c-2.105 4.92-3.849 9.993-4.025 14.29-.088 2.142.248 4.56 1.108 6.673s2.227 3.884 4.18 4.807l-.38.805c-2.216-1.047-3.71-3.03-4.624-5.276-.915-2.248-1.266-4.795-1.173-7.046.184-4.48 1.994-9.697 4.112-14.64l.015-.035.022-.033.163-.249.163-.249.079-.12.133-.05c2.129-.82 4.029-2.067 5.267-3.955l.003-.004c.477-.708.858-1.763 1.053-2.88.195-1.12.194-2.246-.045-3.095l-.074-.263.202-.186c1.364-1.25 1.891-2.902 1.977-3.929l.001-.006c.045-.465.021-1.274-.164-2.137-.186-.866-.524-1.737-1.072-2.368" clip-rule="evenodd"/><path stroke="#000" stroke-miterlimit="10" stroke-width="0.889938" d="M72.449 49.3c.443-.995 5.462-1.846 6.873-1.34 1.4.48 4.882 1.779 7.296 2.814.66.287.651 1.038.401 1.294-2.658 2.955-.6 5.756 2.369 4.583-1.016 1.897 1.876 3.775 3.089 2.691l.91 1.227c-1.08.34-1.854.7-3.185 1.086 0 0-2.961-1.55-3.92-1.978-2.292-1.028-4.528-2.14-6.874-3.084a52 52 0 0 1-3.095-1.373c-1.198-.567-4.293-4.96-3.865-5.92Zm28.909 16.158c-.163.04-.326.079-.521.042-.353-.058-.812-.222-1.342-.415.972-1.58 1.488-4.37.973-6.214a6.3 6.3 0 0 0 1.283-1.622c.902.364 2.147.76 2.64 1.567.492.807.312 2.14.075 2.988-.375 1.295-1.558 3.503-3.108 3.654Z"/><path stroke="#000" stroke-miterlimit="10" stroke-width="0.889938" d="M91.56 47.713c.34.305.65.681.847 1.075.438.89.349 1.944.191 2.908-.162 1.026-.385 2.047-.835 2.956-.49.956-1.207 1.8-2.13 2.372m7.88-7.688c1.017 1.899.444 4.415-.5 6.341-.087.217-.21.419-.334.62"/><path stroke="#000" stroke-miterlimit="10" stroke-width="0.889938" d="M100.439 58.883c-1.545-1.944-3.334-2.917-5.794-2.796-.939.04-2.009.406-2.347 1.297-.251.675 0 1.406.27 2.038.38.825 1.152 1.094 2.419 1.542-2.098-.154-5.153 1.027-6.89 2.005"/><circle cx="49.5984" cy="27.8337" r="2.4475" stroke="#000" stroke-width="0.762804"/></g><defs><clipPath id="a"><path fill="#fff" d="M0 0h140v100H0z"/></clipPath></defs></svg>