<svg xmlns="http://www.w3.org/2000/svg" width="60" height="60" fill="none" viewBox="0 0 60 60"><g clip-path="url(#a)"><circle cx="13.8157" cy="52.1331" r="33.8157" fill="#C14BDC"/><path fill="#000" d="M47.887 15.971c-12.736-7.386-29.053-3.049-36.439 9.687L5.374 36.144a2.914 2.914 0 0 0 1.06 3.99l10.489 6.083c12.736 7.387 29.053 3.05 36.439-9.686l6.083-10.489a2.914 2.914 0 0 0-1.06-3.99zM34.735 39.862a9.07 9.07 0 0 1-11.098-6.437 9.07 9.07 0 0 1 6.437-11.099 9.07 9.07 0 0 1 11.099 6.437 9.07 9.07 0 0 1-6.438 11.099"/><mask id="b" width="56" height="38" x="4" y="12" maskUnits="userSpaceOnUse" style="mask-type:alpha"><path fill="#000" d="M47.887 15.971c-12.736-7.386-29.053-3.049-36.439 9.687L5.374 36.144a2.914 2.914 0 0 0 1.06 3.99l10.489 6.083c12.736 7.387 29.053 3.05 36.439-9.686l6.083-10.489a2.914 2.914 0 0 0-1.06-3.99zM34.735 39.862a9.07 9.07 0 0 1-11.098-6.437 9.07 9.07 0 0 1 6.437-11.099 9.07 9.07 0 0 1 11.099 6.437 9.07 9.07 0 0 1-6.438 11.099"/></mask><g mask="url(#b)"><path fill="#BDEA4A" d="M-2.758-27.409c-23.768 8.865-64.105-5.82-32.896-83.216 94.712 16.149 279.371 47.987 260.319 46.151s-19.79 50.62-23.664 70.955c-12.717 70.458-46.87 32.62-62.381 43.88-26.059 18.918-34.02-27.615-87.107-4.15S-5.405 27.2.753 7.71c6.157-19.49 4.916-33.9-3.511-35.12"/><path fill="#65D2E9" d="M43.24 100.417c23.187-10.288 64.34 1.928 37.876 81.07-95.517-10.383-281.768-30.979-262.64-30.301s16.687-51.725 19.323-72.256c8.425-71.099 44.808-35.4 59.609-47.578 24.865-20.46 35.631 25.504 87.2-1.131 51.567-26.636 57.965 15.526 53 35.354s-2.855 34.135 5.632 34.842"/><path fill="#F69DFF" d="M29.935 20.667c-6.561 24.5-41.923 48.846-86.891-21.44 68.09-67.79 201.134-199.757 188.588-185.302s29.773 45.463 44.096 60.406c50.041 51.2-.6 57.089-.421 76.25.302 32.193-42.235 11.706-53.903 68.551S72.902 54.478 60.59 38.165C48.278 21.85 35.817 14.509 29.935 20.667"/></g></g><defs><clipPath id="a"><path fill="#fff" d="M0 0h60v60H0z"/></clipPath></defs></svg>