<svg xmlns="http://www.w3.org/2000/svg" width="78" height="86" fill="none" viewBox="0 0 78 86"><path fill="url(#a)" d="M32.925 1.81a11.65 11.65 0 0 1 11.649 0L71.29 17.235a11.65 11.65 0 0 1 5.825 10.089v30.85a11.65 11.65 0 0 1-5.825 10.089L44.574 83.688a11.65 11.65 0 0 1-11.65 0L6.208 68.263A11.65 11.65 0 0 1 .382 58.174v-30.85a11.65 11.65 0 0 1 5.825-10.089z"/><g clip-path="url(#b)"><path fill="#FBB3FF" d="M47.044 24.774H20.256a.674.674 0 0 0-.674.674v26.786c0 .372.302.674.674.674h26.788a.674.674 0 0 0 .674-.674V25.448a.674.674 0 0 0-.674-.674"/><path fill="#9757FF" d="M55.004 41.17c4.216 4.73 3.8 11.983-.93 16.198-4.73 4.216-11.982 3.8-16.2-.93-4.216-4.73-3.799-11.981.93-16.199 4.73-4.216 11.982-3.8 16.198.931z"/><path fill="#9757FF" d="M59.958 63.97a2.117 2.117 0 0 1-2.99-.172L45.373 50.791a2.117 2.117 0 1 1 3.162-2.818L60.128 60.98a2.12 2.12 0 0 1-.171 2.99z"/></g><defs><linearGradient id="a" x1="38.7491" x2="38.7491" y1="87.0512" y2="-1.55303" gradientUnits="userSpaceOnUse"><stop stop-color="#F8FBFF"/><stop offset="1" stop-color="#EEEEFA"/></linearGradient><clipPath id="b"><path fill="#fff" d="M19.582 24.774h41.086v39.732H19.582z"/></clipPath></defs></svg>